<svg id="Logo" xmlns="http://www.w3.org/2000/svg" viewBox="0 0 1920 1080"><defs><style>.cls-1{fill:#0d0d10;}.cls-2{fill:#f35;}</style></defs><path class="cls-1" d="M574.09,578.81l23.17-8.63c3.73,15.11,14.72,24,25.13,25.33,13.56,1.77,26.12-4.12,27.29-17.28,1.37-14.33-13.35-21.59-40.25-30.42-18.46-6.1-31-22-30-39.27.78-15.32,11.57-31.43,32.39-36.12s47.71,1.17,58.12,27.67l-22,9.63c-5.7-14.93-19.43-19.05-33-14.34-12.38,4.71-11.78,14.14-10.8,18.45,1.57,7.27,12.38,12.38,18.66,14.54,32.6,12,51.44,21.39,52,47.71.58,26.11-20.62,41-46.54,42.41S578.41,605.13,574.09,578.81Z"/><path class="cls-1" d="M728.61,616.5c-17.67-3.71-23.17-19-23.17-30.22V539.76H688.56v-21h11.19c5.88,0,6.87-1.77,6.87-6.08v-23h23v29.06h23.17v21H729.4V570c0,13.55.39,17.87,3.13,21,4.52,5.1,13,4.12,17.09,1.57l7.06,20.61C749,616.32,741.57,619.27,728.61,616.5Z"/><path class="cls-1" d="M797.92,615.53l-23.56-.19v-96h23.56v14.32c3.13-7.65,7.85-12.37,17.47-15.9,7.08-2.55,18.46-2,25.14,2L834,541.12c-7.84-3.73-21.4-3.14-28.86,5.29-6.67,7.67-7.26,14.14-7.26,39.67Z"/><path class="cls-1" d="M848.39,566.85c0-34.76,24.54-51.05,50.65-51.05,25.9,0,50.84,16.49,47.9,57.13l-74,.78c0,7.66,6.87,22.78,24.54,23.56,13.34.78,21-5.49,25.32-13.74l22.38,6.68c-4.9,12-20.23,27.48-45.73,27.48C868,617.69,848.39,594.93,848.39,566.85Zm25.12-11.59,48.3-.2c0-9.22-9.82-20.81-26.7-19.44-10.41.79-20.43,8.65-21.6,19.64Z"/><path class="cls-1" d="M965,592c-1.77-20.22,11.38-30.63,32.59-33.58a235.65,235.65,0,0,1,27.68-2.76c2.36-4.31,3.14-15.5-10.4-19-12.37-3.14-23.16,1.17-26.7,13.74l-21-6.08c1.57-7.07,6.67-16.3,19.24-23.36,10.21-5.7,27.29-7.66,40.84-2.57,17.07,6.48,24.93,19.64,24.93,33l.58,64.4H1029l-.79-11.78a34.94,34.94,0,0,1-26.9,14.53C980.91,619.46,967,608.67,965,592Zm63.61-16.88c-20.22,1-39.66-2.76-39.66,12.36,0,9.43,9.22,14.33,21.59,11.59,13.55-2.95,19.44-14.15,18.07-23.95Z"/><path class="cls-1" d="M1097.54,518.93v13.75c1.76-2.55,11.58-14.92,26.5-16.69,20.81-2.55,30.82,9.22,34.35,17.47,4.33-8.25,14.15-15.51,29.26-17.47,28.47-3.53,39.07,19.24,39.07,35.73v63.81h-24.54V559.58c0-12.18-3.74-22-16.1-22-14.13,0-22.78,9.82-22.78,27.1v51.05h-24.54V565.27c0-15.7-2.34-27.48-17.67-27.48-14.33,0-22.18,9.62-22.18,31.42v46.52h-24.55V518.94Z"/><path class="cls-1" d="M1273.65,616.12h-25.33V472.8h25.33Z"/><path class="cls-1" d="M1346.89,515.4a51,51,0,0,1,51.44,50.46v.79c0,28.28-22.38,52.42-51.44,52.42-29.26,0-51.64-24.14-51.64-52.42A51,51,0,0,1,1346,515.4Zm.2,81.29c14.12,0,27.28-11.2,27.28-29.84,0-17.48-13.16-29.45-27.28-29.45s-27.5,12-27.5,29.45C1319.59,585.49,1333,596.69,1347.09,596.69Z"/><path class="cls-1" d="M1463.71,515.4a51,51,0,0,1,51.44,50.46v.79c0,28.28-22.39,52.42-51.44,52.42-29.25,0-51.63-24.14-51.63-52.42a51,51,0,0,1,50.73-51.25Zm.2,81.29c14.14,0,27.28-11.2,27.28-29.84,0-17.48-13.14-29.45-27.28-29.45s-27.5,12-27.5,29.45C1436.41,585.49,1449.76,596.69,1463.91,596.69Z"/><path class="cls-1" d="M1567,616.5c-17.66-3.71-23.17-19-23.17-30.22V539.76h-16.88v-21h11.2c5.88,0,6.86-1.77,6.86-6.08v-23h23v29.06h23.18v21h-23.36V570c0,13.55.38,17.87,3.14,21,4.51,5.1,12.95,4.12,17.07,1.57l7.07,20.61C1587.41,616.32,1580,619.27,1567,616.5Z"/><path class="cls-1" d="M1654.94,535.43c-7.85,0-15.11,3.53-15.11,9,0,7.86,9.41,9,29.84,13.93,21.2,5.11,27.68,17.48,27.68,30.05,0,13.74-13.34,30.43-41.81,30.43-24.54,0-37.89-14.73-42.8-27.49l21.39-9.22a25.09,25.09,0,0,0,17.08,15.12c7.86,1.77,21.41-.2,22-9,1-12-25.13-13.14-35-16.48-11.58-3.74-22-13.74-22-25.14,0-14.14,11.58-29.45,34-32.2,14.92-1.76,38.1,4.72,45.16,24l-20.8,8.64C1671.44,539,1662,535.43,1654.94,535.43Z"/><path class="cls-2" d="M505.36,443.13a25.8,25.8,0,0,0-16.4-11.3L367.56,406a26.43,26.43,0,0,0-5.38-.57A26.14,26.14,0,0,0,337,424.87l-93.66,19.66a26.09,26.09,0,0,0-20.12,30.81l36,171.38a26.17,26.17,0,0,0,25.5,20.68,25.72,25.72,0,0,0,5.33-.56l57.26-12L437.46,674a25.78,25.78,0,0,0,5.4.56A26.16,26.16,0,0,0,468.33,654L509,462.7A25.85,25.85,0,0,0,505.36,443.13ZM349.43,428.76a13.1,13.1,0,0,1,12.75-10.31,12.28,12.28,0,0,1,2.68.29l121.4,25.82a13.06,13.06,0,0,1,10,15.43L455.6,651.25a13,13,0,0,1-15.44,10L318.77,635.46a13,13,0,0,1-10-15.44l4.81-22.66-13-1.43L296,617.32a26.09,26.09,0,0,0,19.78,30.81l-28.46,6a12.95,12.95,0,0,1-15.41-10.05l-36-171.38A13,13,0,0,1,246,457.26l88-18.47-10.63,50,13.06,1.13Z"/><path class="cls-2" d="M436.84,619.58a9.57,9.57,0,0,0,10.7-9.71V475.68a9.52,9.52,0,0,0-10.7-9.64l-152.28,16A12.26,12.26,0,0,0,273.85,494v98.61a12.18,12.18,0,0,0,10.72,11.83ZM297,586.29a7.83,7.83,0,0,1-7.16-7.69V511.52a7.86,7.86,0,0,1,7.16-7.69l113.72-8.12a6.61,6.61,0,0,1,7.16,6.68v85.36a6.41,6.41,0,0,1-.33,2.07h0a6.52,6.52,0,0,1-5.68,4.56,5.52,5.52,0,0,1-1.15,0Z"/><path class="cls-2" d="M322.93,544.16c0,3.76-2.74,6.84-6.1,6.84s-6.12-3.08-6.12-6.84V527.78c0-3.77,2.75-6.85,6.12-6.85s6.1,3.08,6.1,6.85Zm66.32,2a6.84,6.84,0,0,1-6.83,6.83h-.19a6.85,6.85,0,0,1-6.83-6.83V525.73a6.85,6.85,0,0,1,6.83-6.84h.19a6.85,6.85,0,0,1,6.83,6.84Z"/></svg>