<svg id="Logo" xmlns="http://www.w3.org/2000/svg" viewBox="0 0 1920 1080"><defs><style>.cls-1{fill:#fff;}.cls-2{fill:#f35;}</style></defs><path class="cls-1" d="M553.32,583.86l23.47-8.76c3.78,15.32,14.92,24.28,25.46,25.67,13.74,1.79,26.46-4.17,27.65-17.5,1.39-14.52-13.53-21.88-40.77-30.82-18.71-6.19-31.44-22.29-30.44-39.8.8-15.51,11.73-31.83,32.82-36.59s48.34,1.18,58.89,28l-22.28,9.76c-5.77-15.13-19.69-19.3-33.43-14.53-12.54,4.77-11.93,14.33-10.94,18.7,1.6,7.36,12.55,12.54,18.9,14.73,33,12.13,52.12,21.68,52.72,48.33.59,26.46-20.89,41.57-47.15,43S557.69,610.52,553.32,583.86Z"/><path class="cls-1" d="M709.87,622c-17.9-3.76-23.47-19.29-23.47-30.62V544.28H669.29V523h11.34c6,0,7-1.79,7-6.16V493.55h23.28V523h23.47v21.29H710.67v30.63c0,13.72.4,18.1,3.17,21.29,4.58,5.17,13.13,4.18,17.32,1.6l7.16,20.88C730.55,621.86,723,624.84,709.87,622Z"/><path class="cls-1" d="M780.09,621.06l-23.87-.2V523.58h23.87V538.1c3.18-7.76,8-12.53,17.71-16.11,7.17-2.59,18.7-2,25.46,2l-6.57,21.68c-7.94-3.77-21.68-3.18-29.24,5.37-6.76,7.76-7.36,14.33-7.36,40.18Z"/><path class="cls-1" d="M831.23,571.73c0-35.22,24.86-51.72,51.31-51.72,26.25,0,51.52,16.71,48.53,57.88l-75,.8c0,7.76,7,23.08,24.86,23.87,13.52.79,21.29-5.57,25.66-13.93l22.68,6.77c-5,12.13-20.5,27.84-46.34,27.84C851.11,623.24,831.23,600.18,831.23,571.73ZM856.68,560l48.94-.21c0-9.34-10-21.07-27.06-19.69-10.54.81-20.69,8.76-21.88,19.9Z"/><path class="cls-1" d="M949.39,597.19c-1.8-20.48,11.53-31,33-34a242.19,242.19,0,0,1,28.05-2.79c2.39-4.37,3.18-15.7-10.54-19.29-12.53-3.17-23.47,1.19-27,13.93l-21.29-6.17c1.59-7.16,6.76-16.51,19.49-23.67,10.35-5.77,27.66-7.76,41.38-2.59,17.31,6.56,25.26,19.9,25.26,33.42l.59,65.25h-24.07l-.79-11.94a35.41,35.41,0,0,1-27.26,14.73C965.49,625,951.37,614.1,949.39,597.19Zm64.45-17.1c-20.49,1-40.19-2.79-40.19,12.52,0,9.56,9.35,14.53,21.88,11.75,13.73-3,19.69-14.33,18.31-24.27Z"/><path class="cls-1" d="M1083.66,523.19v13.93c1.79-2.59,11.74-15.13,26.85-16.92,21.08-2.58,31.22,9.35,34.8,17.71,4.39-8.36,14.34-15.72,29.66-17.71,28.84-3.58,39.58,19.5,39.58,36.2v64.66h-24.87V564.37c0-12.34-3.79-22.29-16.31-22.29-14.32,0-23.08,9.95-23.08,27.45v51.73h-24.86V570.14c0-15.92-2.38-27.85-17.91-27.85-14.51,0-22.47,9.75-22.47,31.83v47.14h-24.87V523.19Z"/><path class="cls-1" d="M1262.1,621.66h-25.67V476.44h25.67Z"/><path class="cls-1" d="M1336.3,519.6a51.65,51.65,0,0,1,52.12,51.14v.79c0,28.65-22.68,53.11-52.12,53.11-29.64,0-52.32-24.46-52.32-53.11a51.68,51.68,0,0,1,51.41-51.93Zm.2,82.37c14.31,0,27.64-11.34,27.64-30.24,0-17.71-13.33-29.84-27.64-29.84s-27.86,12.13-27.86,29.84C1308.64,590.63,1322.18,602,1336.5,602Z"/><path class="cls-1" d="M1454.65,519.6a51.65,51.65,0,0,1,52.13,51.14v.79c0,28.65-22.69,53.11-52.13,53.11-29.63,0-52.31-24.46-52.31-53.11a51.68,51.68,0,0,1,51.41-51.93Zm.21,82.37c14.33,0,27.64-11.34,27.64-30.24,0-17.71-13.31-29.84-27.64-29.84S1427,554,1427,571.73C1427,590.63,1440.53,602,1454.86,602Z"/><path class="cls-1" d="M1559.29,622c-17.9-3.76-23.48-19.29-23.48-30.62V544.28h-17.1V523h11.35c6,0,7-1.79,7-6.16V493.55h23.27V523h23.47v21.29h-23.67v30.63c0,13.72.4,18.1,3.19,21.29,4.57,5.17,13.12,4.18,17.3,1.6l7.16,20.88C1580,621.86,1572.43,624.84,1559.29,622Z"/><path class="cls-1" d="M1648.41,539.9c-8,0-15.31,3.58-15.31,9.15,0,8,9.53,9.15,30.23,14.12,21.48,5.17,28.05,17.7,28.05,30.44,0,13.92-13.52,30.83-42.37,30.83-24.86,0-38.39-14.92-43.36-27.85l21.68-9.34a25.37,25.37,0,0,0,17.3,15.31c8,1.8,21.69-.2,22.29-9.15,1-12.13-25.46-13.32-35.41-16.7-11.74-3.79-22.28-13.93-22.28-25.47,0-14.33,11.73-29.84,34.41-32.63,15.11-1.78,38.6,4.79,45.75,24.27l-21.08,8.75C1665.13,543.48,1655.57,539.9,1648.41,539.9Z"/><path class="cls-2" d="M286,665.79l-31.95,6.7a14.13,14.13,0,0,1-3,.31,14.66,14.66,0,0,1-14.31-11.59L196.42,468.92a14.62,14.62,0,0,1,11.27-17.29l98.74-20.73-9.3,43.71L251,479.48a13.74,13.74,0,0,0-12,13.34V603.45a13.66,13.66,0,0,0,12,13.29l15.59,1.55-2.75,12.93A29.31,29.31,0,0,0,286,665.79Z"/><path class="cls-2" d="M312.4,473l11.34-53.34a14.73,14.73,0,0,1,14.31-11.57,14,14,0,0,1,3,.33l136.21,29a14.65,14.65,0,0,1,11.24,17.31L442.86,669.28a14.65,14.65,0,0,1-14.28,11.56,14.14,14.14,0,0,1-3-.32l-136.2-28.95a14.64,14.64,0,0,1-11.24-17.32l3.08-14.5,140.63,14a10.76,10.76,0,0,0,12-10.89V472.31a10.67,10.67,0,0,0-12-10.82Z"/><path class="cls-2" d="M392.49,494.78,264.9,503.89a8.81,8.81,0,0,0-8,8.63v75.26a8.8,8.8,0,0,0,8,8.63l127.59,9.11a6.15,6.15,0,0,0,1.29,0,7.32,7.32,0,0,0,6.39-5.12,7.43,7.43,0,0,0,.35-2.33V502.27A7.41,7.41,0,0,0,392.49,494.78ZM294,549.14c0,4.21-3.1,7.68-6.86,7.68s-6.86-3.47-6.86-7.68V530.75c0-4.22,3.08-7.68,6.86-7.68s6.86,3.46,6.86,7.68Zm74.41,2.29a7.68,7.68,0,0,1-7.68,7.66h-.21a7.67,7.67,0,0,1-7.66-7.66v-23a7.69,7.69,0,0,1,7.66-7.68h.21a7.7,7.7,0,0,1,7.68,7.68Z"/></svg>