<svg id="Logo" xmlns="http://www.w3.org/2000/svg" viewBox="0 0 1920 1080"><defs><style>.cls-1{fill:#fff;}.cls-2{fill:#0d0d10;}</style></defs><path class="cls-1" d="M406.06,442.79,220.24,462.34a19.92,19.92,0,0,0-17.35,19.27V603.83a19.26,19.26,0,0,0,17.41,18.8l185.76,14.62a15.86,15.86,0,0,0,17.36-16V458.39A15.43,15.43,0,0,0,406.06,442.79ZM385.7,594.42a10.65,10.65,0,0,1-11.56,10.74l-139.39-9.92a12.7,12.7,0,0,1-11.55-12.43v-80.2a12.64,12.64,0,0,1,11.55-12.41l139.39-9.93A10.62,10.62,0,0,1,385.7,491Z"/><path class="cls-1" d="M349.13,544.34a8.73,8.73,0,0,1-8.71,8.7h-.23a8.72,8.72,0,0,1-8.7-8.7v-26a8.73,8.73,0,0,1,8.7-8.71h.23a8.74,8.74,0,0,1,8.71,8.71Z"/><path class="cls-1" d="M264.76,541.75c0,4.79-3.49,8.71-7.76,8.71s-7.77-3.92-7.77-8.71V520.91c0-4.78,3.49-8.7,7.77-8.7s7.76,3.92,7.76,8.7Z"/><path class="cls-2" d="M508.82,571.65l21.68-8.09C534,577.71,544.29,586,554,587.28c12.7,1.65,24.45-3.86,25.55-16.17,1.29-13.42-12.49-20.22-37.67-28.48-17.28-5.71-29-20.59-28.12-36.76.74-14.34,10.84-29.41,30.33-33.81s44.65,1.09,54.39,25.9l-20.58,9c-5.33-14-18.19-17.82-30.88-13.42-11.58,4.41-11,13.24-10.1,17.27,1.47,6.8,11.58,11.59,17.46,13.61,30.51,11.21,48.15,20,48.7,44.65.54,24.45-19.3,38.41-43.56,39.7S512.86,596.28,508.82,571.65Z"/><path class="cls-2" d="M653.45,606.93c-16.54-3.48-21.69-17.82-21.69-28.29V535.09H616V515.42h10.47c5.52,0,6.43-1.66,6.43-5.7v-21.5h21.51v27.2h21.68v19.67H654.19v28.29c0,12.68.37,16.73,2.93,19.67,4.23,4.78,12.13,3.86,16,1.47l6.61,19.29C672.56,606.75,665.58,609.51,653.45,606.93Z"/><path class="cls-2" d="M718.32,606l-22.06-.17V516h22.06v13.41c2.94-7.17,7.35-11.58,16.36-14.89,6.62-2.39,17.27-1.83,23.52,1.85l-6.06,20c-7.35-3.49-20-2.94-27,5-6.24,7.17-6.8,13.23-6.8,37.12Z"/><path class="cls-2" d="M765.56,560.44c0-32.53,23-47.77,47.41-47.77,24.25,0,47.59,15.43,44.83,53.47l-69.27.73c0,7.17,6.43,21.32,23,22.06,12.49.73,19.66-5.15,23.7-12.87l20.95,6.25C851.56,593.52,837.22,608,813.34,608,783.93,608,765.56,586.72,765.56,560.44Zm23.51-10.84,45.21-.19c0-8.63-9.19-19.48-25-18.19-9.74.74-19.12,8.09-20.22,18.38Z"/><path class="cls-2" d="M874.72,584c-1.66-18.93,10.66-28.67,30.5-31.43A220.87,220.87,0,0,1,931.14,550c2.2-4,2.93-14.51-9.74-17.82-11.58-2.94-21.68,1.1-25,12.86l-19.67-5.69c1.47-6.62,6.24-15.25,18-21.87,9.55-5.33,25.54-7.16,38.22-2.39,16,6.06,23.34,18.38,23.34,30.88l.54,60.27H934.62l-.73-11a32.74,32.74,0,0,1-25.18,13.61C889.6,609.7,876.56,599.59,874.72,584Zm59.54-15.8c-18.93.91-37.12-2.58-37.12,11.57,0,8.82,8.64,13.42,20.21,10.85,12.69-2.77,18.19-13.24,16.91-22.42Z"/><path class="cls-2" d="M998.77,515.6v12.87c1.65-2.4,10.84-14,24.81-15.63,19.47-2.39,28.84,8.63,32.14,16.36,4.06-7.72,13.25-14.52,27.4-16.36,26.64-3.3,36.57,18,36.57,33.45V606h-23V553.64c0-11.4-3.5-20.58-15.06-20.58-13.24,0-21.32,9.18-21.32,25.35V606.2h-23V559c0-14.7-2.2-25.72-16.54-25.72-13.42,0-20.77,9-20.77,29.4V606.2h-23V515.6Z"/><path class="cls-2" d="M1163.61,606.57H1139.9V472.41h23.71Z"/><path class="cls-2" d="M1232.16,512.29a47.7,47.7,0,0,1,48.15,47.24v.73c0,26.46-21,49.07-48.15,49.07-27.38,0-48.33-22.61-48.33-49.07a47.73,47.73,0,0,1,47.5-48Zm.19,76.09c13.22,0,25.53-10.48,25.53-27.94,0-16.35-12.31-27.56-25.53-27.56s-25.74,11.21-25.74,27.56C1206.61,577.9,1219.11,588.38,1232.35,588.38Z"/><path class="cls-2" d="M1341.5,512.29a47.71,47.71,0,0,1,48.16,47.24v.73c0,26.46-21,49.07-48.16,49.07-27.37,0-48.32-22.61-48.32-49.07a47.74,47.74,0,0,1,47.48-48Zm.19,76.09c13.24,0,25.54-10.48,25.54-27.94,0-16.35-12.3-27.56-25.54-27.56S1316,544.09,1316,560.44C1316,577.9,1328.46,588.38,1341.69,588.38Z"/><path class="cls-2" d="M1438.17,606.93c-16.53-3.48-21.69-17.82-21.69-28.29V535.09h-15.8V515.42h10.48c5.51,0,6.43-1.66,6.43-5.7v-21.5h21.5v27.2h21.69v19.67h-21.87v28.29c0,12.68.36,16.73,2.94,19.67,4.23,4.78,12.13,3.86,16,1.47l6.62,19.29C1457.29,606.75,1450.3,609.51,1438.17,606.93Z"/><path class="cls-2" d="M1520.5,531c-7.35,0-14.15,3.31-14.15,8.45,0,7.36,8.82,8.45,27.93,13,19.85,4.78,25.92,16.36,25.92,28.12,0,12.87-12.49,28.49-39.14,28.49-23,0-35.47-13.79-40.06-25.73l20-8.63a23.49,23.49,0,0,0,16,14.15c7.36,1.66,20-.19,20.59-8.46.91-11.21-23.52-12.3-32.71-15.43-10.84-3.5-20.59-12.86-20.59-23.52,0-13.24,10.85-27.57,31.8-30.15,14-1.65,35.65,4.42,42.26,22.42l-19.47,8.09C1536,534.35,1527.12,531,1520.5,531Z"/></svg>