<svg id="Logo" xmlns="http://www.w3.org/2000/svg" viewBox="0 0 1920 1080"><defs><style>.cls-1{fill:#0d0d10;}.cls-2{fill:#fff;}</style></defs><path class="cls-1" d="M419.48,773.15l22.29-8.31c3.59,14.55,14.17,23,24.18,24.38,13.06,1.7,25.14-4,26.27-16.62,1.33-13.8-12.85-20.79-38.73-29.28-17.77-5.88-29.86-21.18-28.91-37.81.76-14.73,11.14-30.23,31.18-34.76s45.91,1.13,55.93,26.64l-21.17,9.26c-5.47-14.37-18.7-18.33-31.74-13.8-11.91,4.54-11.34,13.61-10.39,17.76,1.51,7,11.91,11.92,17.95,14,31.37,11.53,49.51,20.59,50.08,45.92.55,25.13-19.85,39.48-44.79,40.81S423.63,798.48,419.48,773.15Z"/><path class="cls-1" d="M568.18,809.43c-17-3.58-22.29-18.33-22.29-29.09V735.56H529.64V715.33h10.77c5.67,0,6.61-1.7,6.61-5.85V687.37h22.11v28h22.3v20.23H568.94v29.09c0,13,.39,17.2,3,20.22,4.35,4.92,12.47,4,16.45,1.52l6.8,19.84C587.83,809.25,580.66,812.08,568.18,809.43Z"/><path class="cls-1" d="M634.89,808.49l-22.68-.19V715.9h22.68v13.79c3-7.37,7.56-11.91,16.82-15.3,6.8-2.46,17.76-1.89,24.19,1.89l-6.24,20.59c-7.55-3.59-20.6-3-27.78,5.1-6.42,7.37-7,13.61-7,38.17Z"/><path class="cls-1" d="M683.46,761.63c0-33.45,23.62-49.12,48.74-49.12,24.94,0,48.94,15.86,46.11,55l-71.23.75c0,7.37,6.61,21.92,23.62,22.68,12.84.75,20.21-5.29,24.37-13.23l21.54,6.42c-4.72,11.53-19.47,26.46-44,26.46C702.35,810.57,683.46,788.65,683.46,761.63Zm24.18-11.15,46.48-.19c0-8.88-9.45-20-25.69-18.71-10,.77-19.66,8.32-20.79,18.9Z"/><path class="cls-1" d="M795.7,785.82c-1.7-19.46,11-29.48,31.36-32.32a228.81,228.81,0,0,1,26.65-2.65c2.27-4.15,3-14.92-10-18.32-11.9-3-22.29,1.13-25.69,13.22l-20.22-5.85c1.51-6.8,6.42-15.68,18.51-22.48,9.83-5.49,26.27-7.37,39.31-2.47,16.43,6.24,24,18.9,24,31.75l.56,62H857.29l-.75-11.34a33.65,33.65,0,0,1-25.89,14C811,812.28,797.59,801.88,795.7,785.82Zm61.22-16.25c-19.46.94-38.17-2.65-38.17,11.9,0,9.08,8.88,13.8,20.78,11.15,13.05-2.84,18.71-13.61,17.39-23Z"/><path class="cls-1" d="M923.25,715.52v13.23c1.7-2.46,11.15-14.36,25.51-16.06,20-2.46,29.66,8.87,33,16.81,4.17-7.94,13.61-14.92,28.17-16.81,27.4-3.4,37.6,18.51,37.6,34.39v61.41H1024V754.64c0-11.72-3.59-21.17-15.48-21.17-13.61,0-21.93,9.45-21.93,26.07v49.14H962.92V760.12c0-15.12-2.25-26.45-17-26.45-13.79,0-21.35,9.26-21.35,30.23v44.78H901V715.53Z"/><path class="cls-1" d="M1092.75,809.06h-24.38V671.12h24.38Z"/><path class="cls-1" d="M1163.23,712.12a49.05,49.05,0,0,1,49.51,48.57v.75c0,27.21-21.55,50.45-49.51,50.45-28.16,0-49.7-23.24-49.7-50.45a49.08,49.08,0,0,1,48.84-49.32Zm.19,78.24c13.6,0,26.25-10.78,26.25-28.73,0-16.82-12.65-28.34-26.25-28.34S1137,744.81,1137,761.63C1137,779.58,1149.81,790.36,1163.42,790.36Z"/><path class="cls-1" d="M1275.66,712.12a49,49,0,0,1,49.51,48.57v.75c0,27.21-21.55,50.45-49.51,50.45-28.15,0-49.69-23.24-49.69-50.45a49.07,49.07,0,0,1,48.82-49.32Zm.19,78.24c13.61,0,26.26-10.78,26.26-28.73,0-16.82-12.65-28.34-26.26-28.34s-26.46,11.52-26.46,28.34C1249.39,779.58,1262.24,790.36,1275.85,790.36Z"/><path class="cls-1" d="M1375.05,809.43c-17-3.58-22.3-18.33-22.3-29.09V735.56h-16.24V715.33h10.77c5.66,0,6.61-1.7,6.61-5.85V687.37H1376v28h22.3v20.23h-22.49v29.09c0,13,.38,17.2,3,20.22,4.34,4.92,12.47,4,16.44,1.52l6.8,19.84C1394.71,809.25,1387.53,812.08,1375.05,809.43Z"/><path class="cls-1" d="M1459.7,731.4c-7.55,0-14.54,3.4-14.54,8.69,0,7.56,9.06,8.69,28.72,13.41,20.4,4.91,26.65,16.82,26.65,28.91,0,13.23-12.85,29.29-40.26,29.29-23.61,0-36.46-14.17-41.18-26.45l20.59-8.88a24.11,24.11,0,0,0,16.44,14.55c7.56,1.7,20.59-.19,21.16-8.7.94-11.52-24.18-12.65-33.63-15.86-11.15-3.6-21.17-13.22-21.17-24.19,0-13.61,11.16-28.34,32.7-31,14.35-1.7,36.66,4.54,43.45,23.05l-20,8.31C1475.59,734.8,1466.51,731.4,1459.7,731.4Z"/><path class="cls-2" d="M1142.23,315.6a32.53,32.53,0,0,0-20.67-14.24l-153-32.53a32.75,32.75,0,0,0-38.52,23.76L812,317.37a32.87,32.87,0,0,0-25.34,38.83l45.33,216a32.75,32.75,0,0,0,38.84,25.35L943,582.38l113.67,24.16a32.31,32.31,0,0,0,6.8.71,33,33,0,0,0,32.1-26l51.25-241A32.58,32.58,0,0,0,1142.23,315.6ZM945.74,297.49a16.5,16.5,0,0,1,16-13,15.63,15.63,0,0,1,3.39.36l153,32.53a16.46,16.46,0,0,1,12.62,19.45l-51.26,241a16.46,16.46,0,0,1-16,13,16.12,16.12,0,0,1-3.39-.35L907.09,558a16.45,16.45,0,0,1-12.63-19.45L900.54,510l-16.39-1.81-5.72,26.95a32.88,32.88,0,0,0,24.93,38.83l-35.86,7.53a17.27,17.27,0,0,1-3.36.36,16.49,16.49,0,0,1-16.07-13l-45.36-216a16.45,16.45,0,0,1,12.68-19.43l110.89-23.26-13.4,63,16.46,1.42Z"/><path class="cls-2" d="M1055.89,538a12.05,12.05,0,0,0,13.48-12.22V356.63a12,12,0,0,0-13.48-12.16L864,364.68a15.45,15.45,0,0,0-13.49,15V503.94A15.36,15.36,0,0,0,864,518.85ZM879.63,496a9.89,9.89,0,0,1-9-9.7V401.79a9.91,9.91,0,0,1,9-9.69L1023,381.87a8.33,8.33,0,0,1,9,8.41V497.85a7.8,7.8,0,0,1-.42,2.61v0a8.22,8.22,0,0,1-7.17,5.74,7.67,7.67,0,0,1-1.44,0Z"/><path class="cls-2" d="M912.34,442.92c0,4.74-3.46,8.62-7.69,8.62s-7.7-3.88-7.7-8.62V422.28c0-4.74,3.45-8.64,7.7-8.64s7.69,3.9,7.69,8.64Zm83.58,2.57a8.63,8.63,0,0,1-8.62,8.61h-.23a8.63,8.63,0,0,1-8.61-8.61v-25.8a8.64,8.64,0,0,1,8.61-8.61h.23a8.64,8.64,0,0,1,8.62,8.61Z"/></svg>