<svg id="Logo" xmlns="http://www.w3.org/2000/svg" viewBox="0 0 1920 1080"><defs><style>.cls-1{fill:#fff;}</style></defs><path d="M390.51,785.62,414,776.86c3.79,15.33,14.94,24.29,25.48,25.68,13.75,1.8,26.48-4.17,27.67-17.51,1.4-14.53-13.53-21.9-40.8-30.85-18.72-6.18-31.46-22.3-30.45-39.82.79-15.52,11.73-31.85,32.84-36.62s48.37,1.19,58.92,28.06l-22.29,9.76c-5.77-15.14-19.71-19.31-33.45-14.54C419.36,705.8,420,715.36,421,719.73c1.59,7.37,12.55,12.55,18.91,14.74,33.05,12.14,52.15,21.69,52.75,48.37.59,26.48-20.91,41.6-47.18,43S394.88,812.29,390.51,785.62Z"/><path d="M547.17,823.83c-17.92-3.77-23.49-19.3-23.49-30.64V746H506.56V724.71h11.35c6,0,7-1.79,7-6.17v-23.3h23.29v29.47h23.49V746H548v30.64c0,13.74.4,18.12,3.18,21.31,4.57,5.17,13.13,4.18,17.32,1.59l7.16,20.9C567.87,823.64,560.31,826.63,547.17,823.83Z"/><path d="M617.44,822.84l-23.9-.19V725.3h23.9v14.53c3.18-7.76,8-12.54,17.72-16.12,7.17-2.59,18.71-2,25.48,2l-6.57,21.7c-8-3.78-21.7-3.19-29.27,5.37-6.76,7.76-7.36,14.33-7.36,40.21Z"/><path d="M668.61,773.48c0-35.24,24.87-51.75,51.35-51.75,26.26,0,51.55,16.71,48.56,57.92l-75,.79c0,7.77,7,23.1,24.89,23.89,13.53.79,21.29-5.57,25.67-13.93l22.69,6.76c-5,12.15-20.51,27.87-46.37,27.87C688.51,825,668.61,802,668.61,773.48Zm25.47-11.75,49-.2c0-9.35-10-21.1-27.08-19.71-10.54.81-20.7,8.77-21.89,19.91Z"/><path d="M786.85,799c-1.8-20.5,11.54-31.06,33-34a240.37,240.37,0,0,1,28.07-2.8c2.39-4.37,3.19-15.71-10.54-19.3-12.55-3.18-23.49,1.2-27.07,13.93L789,750.59c1.6-7.17,6.77-16.52,19.51-23.69,10.35-5.78,27.67-7.76,41.4-2.59,17.32,6.56,25.28,19.91,25.28,33.44l.59,65.3H851.73l-.79-11.95a35.5,35.5,0,0,1-27.28,14.74C803,826.83,788.84,815.88,786.85,799Zm64.49-17.11c-20.5,1-40.21-2.8-40.21,12.53,0,9.56,9.35,14.53,21.89,11.75,13.74-3,19.71-14.34,18.32-24.28Z"/><path d="M921.21,724.9v13.94c1.79-2.59,11.75-15.13,26.88-16.92,21.09-2.59,31.24,9.35,34.82,17.72,4.39-8.37,14.34-15.73,29.67-17.72,28.86-3.58,39.61,19.51,39.61,36.23v64.69H1027.3V766.11c0-12.34-3.78-22.3-16.31-22.3-14.34,0-23.1,10-23.1,27.47v51.77H963V771.89C963,756,960.64,744,945.09,744c-14.52,0-22.49,9.76-22.49,31.85v47.18H897.72V724.91Z"/><path d="M1099.77,823.44h-25.68V678.13h25.68Z"/><path d="M1174,721.32a51.68,51.68,0,0,1,52.16,51.17v.79c0,28.67-22.7,53.15-52.16,53.15-29.66,0-52.35-24.48-52.35-53.15a51.71,51.71,0,0,1,51.45-52Zm.21,82.42c14.32,0,27.65-11.35,27.65-30.26,0-17.72-13.33-29.86-27.65-29.86s-27.88,12.14-27.88,29.86C1146.35,792.39,1159.89,803.74,1174.23,803.74Z"/><path d="M1292.46,721.32a51.68,51.68,0,0,1,52.16,51.17v.79c0,28.67-22.7,53.15-52.16,53.15-29.65,0-52.34-24.48-52.34-53.15a51.7,51.7,0,0,1,51.43-52Zm.2,82.42c14.34,0,27.67-11.35,27.67-30.26,0-17.72-13.33-29.86-27.67-29.86s-27.87,12.14-27.87,29.86C1264.79,792.39,1278.33,803.74,1292.66,803.74Z"/><path d="M1397.17,823.83c-17.91-3.77-23.49-19.3-23.49-30.64V746h-17.12V724.71h11.35c6,0,7-1.79,7-6.17v-23.3h23.29v29.47h23.49V746H1398v30.64c0,13.74.39,18.12,3.19,21.31,4.57,5.17,13.13,4.18,17.32,1.59l7.16,20.9C1417.88,823.64,1410.31,826.63,1397.17,823.83Z"/><path d="M1486.35,741.63c-8,0-15.33,3.58-15.33,9.15,0,8,9.55,9.16,30.26,14.13,21.5,5.18,28.07,17.72,28.07,30.46,0,13.94-13.53,30.86-42.4,30.86-24.88,0-38.41-14.94-43.39-27.87l21.69-9.35a25.43,25.43,0,0,0,17.32,15.33c8,1.79,21.7-.21,22.3-9.17,1-12.14-25.48-13.32-35.44-16.71-11.74-3.79-22.29-13.93-22.29-25.48,0-14.34,11.75-29.86,34.44-32.65,15.12-1.79,38.62,4.78,45.78,24.28l-21.09,8.76C1503.08,745.21,1493.52,741.63,1486.35,741.63Z"/><path class="cls-1" d="M893,591l-41.83,8.78a19,19,0,0,1-3.89.4A19.19,19.19,0,0,1,828.53,585L775.65,333.24a19.16,19.16,0,0,1,14.78-22.64L919.7,283.45l-12.17,57.24-60.46,6.37a18,18,0,0,0-15.73,17.47V509.39a17.89,17.89,0,0,0,15.75,17.4l20.42,2-3.59,17A38.33,38.33,0,0,0,893,591Z"/><path class="cls-1" d="M927.52,338.59l14.86-69.86a19.25,19.25,0,0,1,18.73-15.14A18,18,0,0,1,965,254l178.36,37.93a19.19,19.19,0,0,1,14.72,22.68l-59.76,281a19.22,19.22,0,0,1-18.72,15.14,18.11,18.11,0,0,1-4-.43L897.33,572.4a19.15,19.15,0,0,1-14.72-22.67l4-19,184.14,18.35a14.07,14.07,0,0,0,15.73-14.26V337.67a14,14,0,0,0-15.73-14.17Z"/><path class="cls-1" d="M1032.4,367.1,865.32,379a11.53,11.53,0,0,0-10.52,11.3v98.54a11.53,11.53,0,0,0,10.52,11.31l167.08,11.93a7.82,7.82,0,0,0,1.68,0,9.57,9.57,0,0,0,8.36-6.71,9.26,9.26,0,0,0,.48-3V376.91A9.7,9.7,0,0,0,1032.4,367.1Zm-129,71.17c0,5.53-4,10.06-9,10.06s-9-4.53-9-10.06V414.2c0-5.52,4-10.05,9-10.05s9,4.53,9,10.05Zm97.45,3a10.07,10.07,0,0,1-10.07,10h-.26a10.06,10.06,0,0,1-10-10V411.2a10.08,10.08,0,0,1,10-10.06h.26a10.09,10.09,0,0,1,10.07,10.06Z"/></svg>