<svg id="Logo" xmlns="http://www.w3.org/2000/svg" viewBox="0 0 1920 1080"><defs><style>.cls-1{fill:#fff;}.cls-2{fill:#f35;}</style></defs><path class="cls-1" d="M327.53,766.22,351,757.46c3.79,15.33,14.94,24.29,25.48,25.69,13.75,1.79,26.48-4.18,27.67-17.51,1.4-14.53-13.53-21.9-40.8-30.85-18.72-6.19-31.46-22.3-30.46-39.82.8-15.53,11.74-31.86,32.85-36.62s48.37,1.19,58.92,28.06l-22.3,9.75c-5.76-15.13-19.7-19.3-33.44-14.53C356.38,686.41,357,696,358,700.34c1.59,7.36,12.54,12.55,18.91,14.74,33,12.14,52.15,21.69,52.75,48.37.59,26.47-20.91,41.59-47.18,43S331.9,792.9,327.53,766.22Z"/><path class="cls-1" d="M484.19,804.43c-17.92-3.76-23.49-19.3-23.49-30.64V726.62H443.58V705.31h11.35c6,0,7-1.79,7-6.17V675.85h23.29v29.46h23.49v21.31H485v30.65c0,13.73.4,18.12,3.17,21.3,4.58,5.18,13.14,4.18,17.33,1.6l7.16,20.89C504.88,804.25,497.32,807.24,484.19,804.43Z"/><path class="cls-1" d="M554.46,803.45l-23.9-.2V705.91h23.9v14.53c3.18-7.77,8-12.55,17.72-16.13,7.16-2.59,18.71-2,25.47,2L591.08,728c-8-3.78-21.69-3.18-29.26,5.37-6.76,7.77-7.36,14.34-7.36,40.21Z"/><path class="cls-1" d="M605.62,754.09c0-35.24,24.88-51.76,51.36-51.76,26.26,0,51.55,16.72,48.56,57.93l-75,.79c0,7.76,7,23.09,24.89,23.89,13.52.79,21.29-5.58,25.67-13.94l22.69,6.77c-5,12.15-20.51,27.87-46.37,27.87C625.53,805.64,605.62,782.55,605.62,754.09Zm25.47-11.75,49-.21c0-9.34-9.95-21.09-27.07-19.7-10.54.8-20.7,8.77-21.9,19.91Z"/><path class="cls-1" d="M723.87,779.57c-1.8-20.5,11.54-31.06,33-34.05A240.35,240.35,0,0,1,785,742.73c2.39-4.37,3.19-15.72-10.55-19.3-12.54-3.18-23.48,1.19-27.07,13.93l-21.3-6.16c1.6-7.17,6.77-16.53,19.51-23.69,10.35-5.78,27.67-7.77,41.4-2.6,17.32,6.57,25.28,19.91,25.28,33.45l.59,65.29H788.75L788,791.7a35.45,35.45,0,0,1-27.28,14.74C740,807.44,725.85,796.49,723.87,779.57Zm64.49-17.12c-20.5,1-40.21-2.79-40.21,12.54,0,9.56,9.35,14.53,21.89,11.75,13.74-3,19.71-14.35,18.32-24.29Z"/><path class="cls-1" d="M858.23,705.51v13.94c1.79-2.59,11.75-15.13,26.88-16.93,21.09-2.58,31.24,9.35,34.82,17.72,4.39-8.36,14.34-15.73,29.67-17.72,28.86-3.58,39.61,19.51,39.61,36.23v64.7H964.32V746.72c0-12.35-3.79-22.3-16.31-22.3-14.34,0-23.1,10-23.1,27.47v51.76H900V752.49c0-15.92-2.38-27.86-17.92-27.86-14.53,0-22.49,9.75-22.49,31.85v47.17H834.74V705.52Z"/><path class="cls-1" d="M1036.79,804.05h-25.68V658.73h25.68Z"/><path class="cls-1" d="M1111,701.92a51.69,51.69,0,0,1,52.16,51.17v.8c0,28.66-22.7,53.14-52.16,53.14-29.66,0-52.35-24.48-52.35-53.14a51.71,51.71,0,0,1,51.45-52Zm.2,82.42c14.33,0,27.66-11.34,27.66-30.25,0-17.72-13.33-29.86-27.66-29.86s-27.88,12.14-27.88,29.86C1083.36,773,1096.91,784.34,1111.24,784.34Z"/><path class="cls-1" d="M1229.48,701.92a51.69,51.69,0,0,1,52.16,51.17v.8c0,28.66-22.7,53.14-52.16,53.14-29.65,0-52.35-24.48-52.35-53.14a51.72,51.72,0,0,1,51.44-52Zm.2,82.42c14.34,0,27.67-11.34,27.67-30.25,0-17.72-13.33-29.86-27.67-29.86s-27.87,12.14-27.87,29.86C1201.81,773,1215.35,784.34,1229.68,784.34Z"/><path class="cls-1" d="M1334.19,804.43c-17.91-3.76-23.49-19.3-23.49-30.64V726.62h-17.12V705.31h11.35c6,0,7-1.79,7-6.17V675.85h23.29v29.46h23.49v21.31H1335v30.65c0,13.73.39,18.12,3.19,21.3,4.57,5.18,13.13,4.18,17.31,1.6l7.17,20.89C1354.9,804.25,1347.33,807.24,1334.19,804.43Z"/><path class="cls-1" d="M1423.37,722.23c-8,0-15.33,3.59-15.33,9.16,0,8,9.55,9.15,30.26,14.13,21.5,5.18,28.07,17.71,28.07,30.46,0,13.94-13.53,30.85-42.4,30.85-24.88,0-38.42-14.93-43.39-27.87l21.69-9.35a25.39,25.39,0,0,0,17.32,15.33c8,1.8,21.69-.2,22.29-9.16,1-12.14-25.47-13.33-35.43-16.71-11.74-3.79-22.3-13.93-22.3-25.49,0-14.34,11.75-29.85,34.45-32.65,15.12-1.79,38.62,4.79,45.77,24.29L1443.28,734C1440.1,725.82,1430.53,722.23,1423.37,722.23Z"/><path class="cls-2" d="M830,571.63l-41.83,8.77a19,19,0,0,1-3.9.41,19.2,19.2,0,0,1-18.73-15.18L712.67,313.84a19.14,19.14,0,0,1,14.77-22.63l129.28-27.15L844.54,321.3l-60.45,6.36a18,18,0,0,0-15.73,17.48V490a17.9,17.9,0,0,0,15.75,17.4l20.42,2-3.59,16.94A38.35,38.35,0,0,0,830,571.63Z"/><path class="cls-2" d="M864.54,319.2l14.86-69.86a19.25,19.25,0,0,1,18.73-15.14,18,18,0,0,1,3.93.42l178.36,37.93a19.17,19.17,0,0,1,14.72,22.67l-59.76,281a19.21,19.21,0,0,1-18.72,15.14,18.25,18.25,0,0,1-4-.42L834.35,553a19.16,19.16,0,0,1-14.72-22.68l4-19,184.13,18.36a14.08,14.08,0,0,0,15.74-14.27V318.28a14,14,0,0,0-15.74-14.17Z"/><path class="cls-2" d="M969.42,347.7,802.34,359.63a11.54,11.54,0,0,0-10.52,11.3v98.55a11.52,11.52,0,0,0,10.52,11.3l167.08,11.93a7.84,7.84,0,0,0,1.68,0,9.55,9.55,0,0,0,8.36-6.71,9.22,9.22,0,0,0,.48-3V357.51A9.71,9.71,0,0,0,969.42,347.7ZM840.47,418.88c0,5.52-4,10.05-9,10.05s-9-4.53-9-10.05V394.81c0-5.53,4-10.06,9-10.06s9,4.53,9,10.06Zm97.45,3a10.08,10.08,0,0,1-10.07,10h-.26a10.06,10.06,0,0,1-10-10V391.81a10.07,10.07,0,0,1,10-10.06h.26a10.09,10.09,0,0,1,10.07,10.06Z"/></svg>