<svg xmlns="http://www.w3.org/2000/svg" width="599.999" height="559.1" viewBox="0 0 599.999 559.1"><g transform="translate(-966.566 -903)"><path d="M896.569,745.531l-65.481,13.729a29.744,29.744,0,0,1-6.1.642,30.056,30.056,0,0,1-29.32-23.762L712.9,341.985a29.962,29.962,0,0,1,23.121-35.425L938.4,264.06l-19.066,89.6L824.7,363.619a28.177,28.177,0,0,0-24.624,27.363V617.747a28.021,28.021,0,0,0,24.655,27.238l31.965,3.131-5.62,26.518A60.033,60.033,0,0,0,896.569,745.531Z" transform="translate(254.303 685.684)" fill="#f35"/><path d="M890.167,367.259,913.429,257.9a30.134,30.134,0,0,1,29.32-23.7,28.178,28.178,0,0,1,6.152.657l279.205,59.376a30.009,30.009,0,0,1,23.042,35.488L1157.6,769.6a30.072,30.072,0,0,1-29.3,23.7,28.575,28.575,0,0,1-6.261-.657L842.908,733.25a29.993,29.993,0,0,1-23.043-35.5L826.126,668l288.237,28.74A22.041,22.041,0,0,0,1139,674.407V365.819a21.916,21.916,0,0,0-24.64-22.182Z" transform="translate(314.773 668.8)" fill="#f35"/><path d="M1069.835,347.719,808.288,366.394a18.065,18.065,0,0,0-16.468,17.689v154.27a18.034,18.034,0,0,0,16.468,17.689l261.548,18.675a12.236,12.236,0,0,0,2.63,0,14.949,14.949,0,0,0,13.086-10.5,14.442,14.442,0,0,0,.751-4.7V363.076a15.2,15.2,0,0,0-16.468-15.357ZM867.977,459.144c0,8.641-6.262,15.732-14.089,15.732S839.8,467.785,839.8,459.144V421.465c0-8.656,6.262-15.748,14.089-15.748s14.089,7.092,14.089,15.748Zm152.548,4.7a15.779,15.779,0,0,1-15.763,15.654h-.407A15.749,15.749,0,0,1,988.7,463.84V416.769a15.764,15.764,0,0,1,15.654-15.748h.407a15.8,15.8,0,0,1,15.763,15.748Z" transform="translate(299.284 732.954)" fill="#f35"/></g></svg>